<svg width="37" height="36" viewBox="0 0 37 36" fill="none" xmlns="http://www.w3.org/2000/svg">
<circle cx="18.0613" cy="18" r="18" fill="#D9D9D9"/>
<path d="M27.7244 27.75C27.7244 23.3962 23.3931 19.875 18.0606 19.875C12.7281 19.875 8.39685 23.3962 8.39685 27.75M18.0606 16.5C19.5524 16.5 20.9832 15.9074 22.0381 14.8525C23.093 13.7976 23.6856 12.3668 23.6856 10.875C23.6856 9.38316 23.093 7.95242 22.0381 6.89752C20.9832 5.84263 19.5524 5.25 18.0606 5.25C16.5688 5.25 15.138 5.84263 14.0831 6.89752C13.0282 7.95242 12.4356 9.38316 12.4356 10.875C12.4356 12.3668 13.0282 13.7976 14.0831 14.8525C15.138 15.9074 16.5688 16.5 18.0606 16.5V16.5Z" stroke="#0B0D43" stroke-width="1.5" stroke-linecap="round" stroke-linejoin="round"/>
</svg>
